<svg xmlns="http://www.w3.org/2000/svg" viewBox="0 0 320 200" fill="none" aria-hidden="true">
  <g stroke="#2d4a3e">
    <rect x="24" y="32" width="88" height="52" rx="6" stroke-width="1.25" opacity="0.45" />
    <rect x="116" y="24" width="88" height="52" rx="6" stroke-width="1.25" opacity="0.55" />
    <rect x="208" y="40" width="88" height="52" rx="6" stroke-width="1.25" opacity="0.45" />
    <path d="M112 58h4M204 50h4M204 66h4" stroke-width="1.25" stroke-linecap="round" opacity="0.35" />
    <circle cx="68" cy="130" r="10" stroke-width="1.25" opacity="0.5" />
    <circle cx="160" cy="118" r="10" stroke-width="1.25" opacity="0.65" />
    <circle cx="252" cy="138" r="10" stroke-width="1.25" opacity="0.5" />
    <path d="M78 130 L150 118 M170 118 L242 138" stroke-width="1.25" opacity="0.35" />
    <path d="M68 94v24M160 76v36M252 92v38" stroke-width="1" stroke-dasharray="3 4" opacity="0.3" />
  </g>
  <g fill="#2d4a3e" font-family="system-ui, Segoe UI, Roboto, Helvetica, Arial, sans-serif">
    <text x="68" y="58" text-anchor="middle" dominant-baseline="middle" font-size="14" font-weight="600">Luau</text>
    <text x="160" y="50" text-anchor="middle" dominant-baseline="middle" font-size="14" font-weight="600">C</text>
    <text x="252" y="66" text-anchor="middle" dominant-baseline="middle" font-size="14" font-weight="600">Python</text>
    <text x="68" y="149" text-anchor="middle" font-size="9" font-weight="500">Gameplay</text>
    <text x="160" y="137" text-anchor="middle" font-size="9" font-weight="500">Native</text>
    <text x="252" y="157" text-anchor="middle" font-size="9" font-weight="500">Tooling</text>
  </g>
</svg>
